<svg width="154" height="32" viewBox="0 0 154 32" fill="none" xmlns="http://www.w3.org/2000/svg">
<path d="M31.2683 1.10604L11.0772 21.3515H0.648883C0.0712566 21.3515 -0.216262 20.6547 0.190408 20.2454L20.3814 0H30.8098C31.3874 0 31.6749 0.696778 31.2683 1.10604Z" fill="#B7ED1C"/>
<path d="M32.2189 31.9975H21.7206L11.0746 21.3516H23.1375L32.6799 30.8941C33.0892 31.3033 32.7991 32.0001 32.2215 32.0001L32.2189 31.9975Z" fill="#B7ED1C"/>
<path fill-rule="evenodd" clip-rule="evenodd" d="M43.5382 30.4621H48.7762L52.3262 16.9933H63.9233L67.4733 30.4621H72.7113L64.9198 1.53809H51.3723L43.5382 30.4621ZM55.1386 6.33035H61.1109H61.1142L62.6712 12.2797H53.5816L55.1386 6.33035ZM92.1065 6.16645L75.3107 25.8337V30.4621H98.6459V25.8337H81.6763L98.5574 6.16645V1.53809H75.8745V6.16645H92.1065ZM104.271 1.53809H124.571V6.2484H109.463V13.0664H122.666V17.7767H109.463V25.7518H125.046V30.4621H104.268V1.53809H104.271ZM128.816 1.53809L137.168 14.8004L137.164 14.8037L126.777 30.4621H132.621L140.239 18.9338L147.555 30.4621H153.442L143.228 14.5545L151.712 1.53809H145.867L140.072 10.4638L134.617 1.53809H128.816Z" fill="white"/>
</svg>
